<svg xmlns="http://www.w3.org/2000/svg" width="128" height="128" viewBox="0 0 128 128">
  <defs>
    <linearGradient id="tile" x1="0" y1="0" x2="0" y2="1">
      <stop offset="0" stop-color="#142230"/>
      <stop offset="1" stop-color="#06090f"/>
    </linearGradient>
    <linearGradient id="stroke" x1="0" y1="0" x2="1" y2="1">
      <stop offset="0" stop-color="#67e8f9"/>
      <stop offset="1" stop-color="#22d3ee"/>
    </linearGradient>
  </defs>

  <rect x="6" y="6" width="116" height="116" rx="28" fill="url(#tile)"/>
  <rect x="7.5" y="7.5" width="113" height="113" rx="26.5" fill="none" stroke="#22d3ee" stroke-opacity="0.38" stroke-width="2.5"/>

  <g fill="none" stroke="#22d3ee" stroke-opacity="0.2" stroke-width="13" stroke-linecap="round" stroke-linejoin="round">
    <rect x="42" y="46" width="54" height="38" rx="7"/>
    <path d="M44 50 L69 70 L94 50"/>
  </g>

  <g fill="none" stroke="url(#stroke)" stroke-width="5.5" stroke-linecap="round" stroke-linejoin="round">
    <rect x="42" y="46" width="54" height="38" rx="7"/>
    <path d="M44 50 L69 70 L94 50"/>
  </g>

  <g stroke="#22d3ee" stroke-width="5.5" stroke-linecap="round">
    <line x1="21" y1="52" x2="33" y2="52" stroke-opacity="0.55"/>
    <line x1="15" y1="65" x2="31" y2="65"/>
    <line x1="21" y1="78" x2="33" y2="78" stroke-opacity="0.55"/>
  </g>

  <path d="M103 23 L105.6 29.4 L112 32 L105.6 34.6 L103 41 L100.4 34.6 L94 32 L100.4 29.4 Z" fill="#67e8f9"/>
</svg>
